<svg xmlns="http://www.w3.org/2000/svg" xmlns:xlink="http://www.w3.org/1999/xlink" width="184" height="184" viewBox="0 0 184 184">
  <defs>
    <linearGradient id="linear-gradient" x1="0.5" x2="0.5" y2="1" gradientUnits="objectBoundingBox">
      <stop offset="0" stop-color="#ffdb4d"/>
      <stop offset="1" stop-color="#fc0"/>
    </linearGradient>
  </defs>
  <g id="sun" transform="translate(-218.5 -1332)">
    <g id="Rays" transform="translate(218.5 1332)">
      <g id="ray" transform="translate(79.5)" fill="#fc0">
        <path d="M 22.42251968383789 20.5 L 2.577481031417847 20.5 L 12.5 3.036366701126099 L 22.42251968383789 20.5 Z" stroke="none"/>
        <path d="M 12.5 6.072761535644531 L 5.154977798461914 19 L 19.84502220153809 19 L 12.5 6.072761535644531 M 12.5 0 L 25 22 L 0 22 L 12.5 0 Z" stroke="none" fill="#ffb300"/>
      </g>
      <g id="ray-2" data-name="ray" transform="translate(104.5 184) rotate(180)" fill="#fc0">
        <path d="M 22.42251968383789 20.5 L 2.577481031417847 20.5 L 12.5 3.036366701126099 L 22.42251968383789 20.5 Z" stroke="none"/>
        <path d="M 12.5 6.072761535644531 L 5.154977798461914 19 L 19.84502220153809 19 L 12.5 6.072761535644531 M 12.5 0 L 25 22 L 0 22 L 12.5 0 Z" stroke="none" fill="#ffb300"/>
      </g>
      <g id="ray-3" data-name="ray" transform="translate(127.175 6.076) rotate(30)" fill="#fc0">
        <path d="M 22.42251968383789 20.5 L 2.577481031417847 20.5 L 12.5 3.036366701126099 L 22.42251968383789 20.5 Z" stroke="none"/>
        <path d="M 12.5 6.072761535644531 L 5.154977798461914 19 L 19.84502220153809 19 L 12.5 6.072761535644531 M 12.5 0 L 25 22 L 0 22 L 12.5 0 Z" stroke="none" fill="#ffb300"/>
      </g>
      <g id="ray-4" data-name="ray" transform="translate(56.825 177.924) rotate(-150)" fill="#fc0">
        <path d="M 22.42251968383789 20.5 L 2.577481031417847 20.5 L 12.5 3.036366701126099 L 22.42251968383789 20.5 Z" stroke="none"/>
        <path d="M 12.5 6.072761535644531 L 5.154977798461914 19 L 19.84502220153809 19 L 12.5 6.072761535644531 M 12.5 0 L 25 22 L 0 22 L 12.5 0 Z" stroke="none" fill="#ffb300"/>
      </g>
      <g id="ray-5" data-name="ray" transform="translate(165.424 35.175) rotate(60)" fill="#fc0">
        <path d="M 22.42251968383789 20.5 L 2.577481031417847 20.5 L 12.5 3.036366701126099 L 22.42251968383789 20.5 Z" stroke="none"/>
        <path d="M 12.5 6.072761535644531 L 5.154977798461914 19 L 19.84502220153809 19 L 12.5 6.072761535644531 M 12.5 0 L 25 22 L 0 22 L 12.5 0 Z" stroke="none" fill="#ffb300"/>
      </g>
      <g id="ray-6" data-name="ray" transform="translate(18.576 148.825) rotate(-120)" fill="#fc0">
        <path d="M 22.42251968383789 20.5 L 2.577481031417847 20.5 L 12.5 3.036366701126099 L 22.42251968383789 20.5 Z" stroke="none"/>
        <path d="M 12.5 6.072761535644531 L 5.154977798461914 19 L 19.84502220153809 19 L 12.5 6.072761535644531 M 12.5 0 L 25 22 L 0 22 L 12.5 0 Z" stroke="none" fill="#ffb300"/>
      </g>
      <g id="ray-7" data-name="ray" transform="translate(184 79.5) rotate(90)" fill="#fc0">
        <path d="M 22.42251968383789 20.5 L 2.577481031417847 20.5 L 12.5 3.036366701126099 L 22.42251968383789 20.5 Z" stroke="none"/>
        <path d="M 12.5 6.072761535644531 L 5.154977798461914 19 L 19.84502220153809 19 L 12.5 6.072761535644531 M 12.5 0 L 25 22 L 0 22 L 12.5 0 Z" stroke="none" fill="#ffb300"/>
      </g>
      <g id="ray-8" data-name="ray" transform="translate(0 104.5) rotate(-90)" fill="#fc0">
        <path d="M 22.42251968383789 20.5 L 2.577481031417847 20.5 L 12.5 3.036366701126099 L 22.42251968383789 20.5 Z" stroke="none"/>
        <path d="M 12.5 6.072761535644531 L 5.154977798461914 19 L 19.84502220153809 19 L 12.5 6.072761535644531 M 12.5 0 L 25 22 L 0 22 L 12.5 0 Z" stroke="none" fill="#ffb300"/>
      </g>
      <g id="ray-9" data-name="ray" transform="translate(177.924 127.175) rotate(120)" fill="#fc0">
        <path d="M 22.42251968383789 20.5 L 2.577481031417847 20.5 L 12.5 3.036366701126099 L 22.42251968383789 20.5 Z" stroke="none"/>
        <path d="M 12.5 6.072761535644531 L 5.154977798461914 19 L 19.84502220153809 19 L 12.5 6.072761535644531 M 12.5 0 L 25 22 L 0 22 L 12.5 0 Z" stroke="none" fill="#ffb300"/>
      </g>
      <g id="ray-10" data-name="ray" transform="translate(6.076 56.825) rotate(-60)" fill="#fc0">
        <path d="M 22.42251968383789 20.5 L 2.577481031417847 20.5 L 12.5 3.036366701126099 L 22.42251968383789 20.5 Z" stroke="none"/>
        <path d="M 12.5 6.072761535644531 L 5.154977798461914 19 L 19.84502220153809 19 L 12.5 6.072761535644531 M 12.5 0 L 25 22 L 0 22 L 12.5 0 Z" stroke="none" fill="#ffb300"/>
      </g>
      <g id="ray-11" data-name="ray" transform="translate(35.175 18.576) rotate(-30)" fill="#fc0">
        <path d="M 22.42251968383789 20.5 L 2.577481031417847 20.5 L 12.5 3.036366701126099 L 22.42251968383789 20.5 Z" stroke="none"/>
        <path d="M 12.5 6.072761535644531 L 5.154977798461914 19 L 19.84502220153809 19 L 12.5 6.072761535644531 M 12.5 0 L 25 22 L 0 22 L 12.5 0 Z" stroke="none" fill="#ffb300"/>
      </g>
      <g id="ray-12" data-name="ray" transform="translate(148.825 165.424) rotate(150)" fill="#fc0">
        <path d="M 22.42251968383789 20.5 L 2.577481031417847 20.5 L 12.5 3.036366701126099 L 22.42251968383789 20.5 Z" stroke="none"/>
        <path d="M 12.5 6.072761535644531 L 5.154977798461914 19 L 19.84502220153809 19 L 12.5 6.072761535644531 M 12.5 0 L 25 22 L 0 22 L 12.5 0 Z" stroke="none" fill="#ffb300"/>
      </g>
    </g>
    <path id="sun-2" data-name="sun" d="M68,0A68,68,0,1,1,0,68,68,68,0,0,1,68,0Z" transform="translate(242 1356)" fill="url(#linear-gradient)"/>
    <g id="Sun_Face" data-name="Sun Face" transform="translate(242 1356)">
      <g id="eyes">
        <g id="eye" transform="translate(2.001)">
          <path id="lashes" d="M15,0c8.284,0,15,8.182,15,8.182s-6.716,9.226-15,9.226S0,8.182,0,8.182,6.716,0,15,0Z" transform="translate(22 47.636)"/>
          <path id="eye_whites" data-name="eye whites" d="M15,0c8.284,0,15,8.182,15,8.182s-6.716,8.182-15,8.182S0,8.182,0,8.182,6.716,0,15,0Z" transform="translate(22 47.636)" fill="#fff"/>
          <circle id="eyecenter" cx="6.5" cy="6.5" r="6.5" transform="translate(30 50)"/>
          <path id="eyelid" d="M-90,108.182v0l.012-.014a28.915,28.915,0,0,1,4.383-4.076,23.047,23.047,0,0,1,4.768-2.813A14.867,14.867,0,0,1-75,100a14.865,14.865,0,0,1,5.838,1.278,23.046,23.046,0,0,1,4.768,2.813A28.463,28.463,0,0,1-60,108.178a33.833,33.833,0,0,0-15-3.814A33.969,33.969,0,0,0-90,108.182Z" transform="translate(112 -52.364)" fill="#1c9dff"/>
        </g>
        <g id="eye-2" data-name="eye" transform="translate(60.001)">
          <path id="lashes-2" data-name="lashes" d="M15,0c8.284,0,15,8.182,15,8.182s-6.716,9.226-15,9.226S0,8.182,0,8.182,6.716,0,15,0Z" transform="translate(22 47.636)"/>
          <path id="eye_whites-2" data-name="eye whites" d="M15,0c8.284,0,15,8.182,15,8.182s-6.716,8.182-15,8.182S0,8.182,0,8.182,6.716,0,15,0Z" transform="translate(22 47.636)" fill="#fff"/>
          <circle id="eyecenter-2" data-name="eyecenter" cx="6.5" cy="6.5" r="6.5" transform="translate(30 50)"/>
          <path id="eyelid-2" data-name="eyelid" d="M-90,108.182v0l.012-.014a28.915,28.915,0,0,1,4.383-4.076,23.047,23.047,0,0,1,4.768-2.813A14.867,14.867,0,0,1-75,100a14.865,14.865,0,0,1,5.838,1.278,23.046,23.046,0,0,1,4.768,2.813A28.463,28.463,0,0,1-60,108.178a33.833,33.833,0,0,0-15-3.814A33.969,33.969,0,0,0-90,108.182Z" transform="translate(112 -52.364)" fill="#1c9dff"/>
        </g>
      </g>
      <path id="Mouth" d="M-182-86a31.915,31.915,0,0,1-10.9-2.031,45.241,45.241,0,0,1-8.9-4.469A50.317,50.317,0,0,1-210-99a51.612,51.612,0,0,0,8.2,4.5A49.993,49.993,0,0,0-182-90a49.993,49.993,0,0,0,19.8-4.5A51.025,51.025,0,0,0-154-99s0,.007-.011.014A50.579,50.579,0,0,1-162.2-92.5a45.242,45.242,0,0,1-8.9,4.469A31.915,31.915,0,0,1-182-86Z" transform="translate(250 182)"/>
      <path id="brow" d="M3.151,0S7.2,12,6.393,16,.719,20-.091,16,3.151,0,3.151,0Z" transform="matrix(0.259, -0.966, 0.966, 0.259, 36.051, 43.783)"/>
      <path id="Nose" d="M.819,0S2.049,3.644,1.8,4.859a.987.987,0,0,1-1.969,0C-.412,3.644.819,0,.819,0Z" transform="matrix(0.259, -0.966, 0.966, 0.259, 59.051, 77.773)"/>
      <path id="Nose-2" data-name="Nose" d="M1.017,5.77S2.248,2.126,2,.911a.987.987,0,0,0-1.969,0C-.214,2.126,1.017,5.77,1.017,5.77Z" transform="matrix(-0.259, -0.966, 0.966, -0.259, 71.427, 79.458)"/>
      <path id="brow-2" data-name="brow" d="M3.349,19S7.4,7,6.591,3,.918-1,.107,3,3.349,19,3.349,19Z" transform="matrix(-0.259, -0.966, 0.966, -0.259, 81.647, 48.892)"/>
    </g>
  </g>
</svg>
